<?xml version="1.0" encoding="utf-8" standalone="no"?>
<!DOCTYPE svg PUBLIC "-//W3C//DTD SVG 1.1//EN"
  "http://www.w3.org/Graphics/SVG/1.1/DTD/svg11.dtd">
<svg xmlns:xlink="http://www.w3.org/1999/xlink" width="460.8pt" height="345.6pt" viewBox="0 0 460.8 345.6" xmlns="http://www.w3.org/2000/svg" version="1.1">
 <metadata>
  <rdf:RDF xmlns:dc="http://purl.org/dc/elements/1.1/" xmlns:cc="http://creativecommons.org/ns#" xmlns:rdf="http://www.w3.org/1999/02/22-rdf-syntax-ns#">
   <cc:Work>
    <dc:type rdf:resource="http://purl.org/dc/dcmitype/StillImage"/>
    <dc:date>2022-12-02T16:52:04.855618</dc:date>
    <dc:format>image/svg+xml</dc:format>
    <dc:creator>
     <cc:Agent>
      <dc:title>Matplotlib v3.6.2, https://matplotlib.org/</dc:title>
     </cc:Agent>
    </dc:creator>
   </cc:Work>
  </rdf:RDF>
 </metadata>
 <defs>
  <style type="text/css">*{stroke-linejoin: round; stroke-linecap: butt}</style>
 </defs>
 <g id="figure_1">
  <g id="patch_1">
   <path d="M 0 345.6 
L 460.8 345.6 
L 460.8 0 
L 0 0 
z
" style="fill: #ffffff"/>
  </g>
  <g id="axes_1">
   <g id="patch_2">
    <path d="M 57.6 307.584 
L 414.72 307.584 
L 414.72 41.472 
L 57.6 41.472 
z
" style="fill: #eaeaf2"/>
   </g>
   <g id="matplotlib.axis_1">
    <g id="xtick_1">
     <g id="line2d_1">
      <path d="M 73.832727 307.584 
L 73.832727 41.472 
" clip-path="url(#p1124e95527)" style="fill: none; stroke: #ffffff; stroke-linecap: round"/>
     </g>
     <g id="text_1">
      <!-- 0 -->
      <g style="fill: #262626" transform="translate(70.774212 324.957594) scale(0.11 -0.11)">
       <defs>
        <path id="ArialMT-30" d="M 266 2259 
Q 266 3072 433 3567 
Q 600 4063 929 4331 
Q 1259 4600 1759 4600 
Q 2128 4600 2406 4451 
Q 2684 4303 2865 4023 
Q 3047 3744 3150 3342 
Q 3253 2941 3253 2259 
Q 3253 1453 3087 958 
Q 2922 463 2592 192 
Q 2263 -78 1759 -78 
Q 1097 -78 719 397 
Q 266 969 266 2259 
z
M 844 2259 
Q 844 1131 1108 757 
Q 1372 384 1759 384 
Q 2147 384 2411 759 
Q 2675 1134 2675 2259 
Q 2675 3391 2411 3762 
Q 2147 4134 1753 4134 
Q 1366 4134 1134 3806 
Q 844 3388 844 2259 
z
" transform="scale(0.015625)"/>
       </defs>
       <use xlink:href="#ArialMT-30"/>
      </g>
     </g>
    </g>
    <g id="xtick_2">
     <g id="line2d_2">
      <path d="M 121.646357 307.584 
L 121.646357 41.472 
" clip-path="url(#p1124e95527)" style="fill: none; stroke: #ffffff; stroke-linecap: round"/>
     </g>
     <g id="text_2">
      <!-- 200 -->
      <g style="fill: #262626" transform="translate(112.47081 324.957594) scale(0.11 -0.11)">
       <defs>
        <path id="ArialMT-32" d="M 3222 541 
L 3222 0 
L 194 0 
Q 188 203 259 391 
Q 375 700 629 1000 
Q 884 1300 1366 1694 
Q 2113 2306 2375 2664 
Q 2638 3022 2638 3341 
Q 2638 3675 2398 3904 
Q 2159 4134 1775 4134 
Q 1369 4134 1125 3890 
Q 881 3647 878 3216 
L 300 3275 
Q 359 3922 746 4261 
Q 1134 4600 1788 4600 
Q 2447 4600 2831 4234 
Q 3216 3869 3216 3328 
Q 3216 3053 3103 2787 
Q 2991 2522 2730 2228 
Q 2469 1934 1863 1422 
Q 1356 997 1212 845 
Q 1069 694 975 541 
L 3222 541 
z
" transform="scale(0.015625)"/>
       </defs>
       <use xlink:href="#ArialMT-32"/>
       <use xlink:href="#ArialMT-30" x="55.615234"/>
       <use xlink:href="#ArialMT-30" x="111.230469"/>
      </g>
     </g>
    </g>
    <g id="xtick_3">
     <g id="line2d_3">
      <path d="M 169.459987 307.584 
L 169.459987 41.472 
" clip-path="url(#p1124e95527)" style="fill: none; stroke: #ffffff; stroke-linecap: round"/>
     </g>
     <g id="text_3">
      <!-- 400 -->
      <g style="fill: #262626" transform="translate(160.28444 324.957594) scale(0.11 -0.11)">
       <defs>
        <path id="ArialMT-34" d="M 2069 0 
L 2069 1097 
L 81 1097 
L 81 1613 
L 2172 4581 
L 2631 4581 
L 2631 1613 
L 3250 1613 
L 3250 1097 
L 2631 1097 
L 2631 0 
L 2069 0 
z
M 2069 1613 
L 2069 3678 
L 634 1613 
L 2069 1613 
z
" transform="scale(0.015625)"/>
       </defs>
       <use xlink:href="#ArialMT-34"/>
       <use xlink:href="#ArialMT-30" x="55.615234"/>
       <use xlink:href="#ArialMT-30" x="111.230469"/>
      </g>
     </g>
    </g>
    <g id="xtick_4">
     <g id="line2d_4">
      <path d="M 217.273616 307.584 
L 217.273616 41.472 
" clip-path="url(#p1124e95527)" style="fill: none; stroke: #ffffff; stroke-linecap: round"/>
     </g>
     <g id="text_4">
      <!-- 600 -->
      <g style="fill: #262626" transform="translate(208.098069 324.957594) scale(0.11 -0.11)">
       <defs>
        <path id="ArialMT-36" d="M 3184 3459 
L 2625 3416 
Q 2550 3747 2413 3897 
Q 2184 4138 1850 4138 
Q 1581 4138 1378 3988 
Q 1113 3794 959 3422 
Q 806 3050 800 2363 
Q 1003 2672 1297 2822 
Q 1591 2972 1913 2972 
Q 2475 2972 2870 2558 
Q 3266 2144 3266 1488 
Q 3266 1056 3080 686 
Q 2894 316 2569 119 
Q 2244 -78 1831 -78 
Q 1128 -78 684 439 
Q 241 956 241 2144 
Q 241 3472 731 4075 
Q 1159 4600 1884 4600 
Q 2425 4600 2770 4297 
Q 3116 3994 3184 3459 
z
M 888 1484 
Q 888 1194 1011 928 
Q 1134 663 1356 523 
Q 1578 384 1822 384 
Q 2178 384 2434 671 
Q 2691 959 2691 1453 
Q 2691 1928 2437 2201 
Q 2184 2475 1800 2475 
Q 1419 2475 1153 2201 
Q 888 1928 888 1484 
z
" transform="scale(0.015625)"/>
       </defs>
       <use xlink:href="#ArialMT-36"/>
       <use xlink:href="#ArialMT-30" x="55.615234"/>
       <use xlink:href="#ArialMT-30" x="111.230469"/>
      </g>
     </g>
    </g>
    <g id="xtick_5">
     <g id="line2d_5">
      <path d="M 265.087246 307.584 
L 265.087246 41.472 
" clip-path="url(#p1124e95527)" style="fill: none; stroke: #ffffff; stroke-linecap: round"/>
     </g>
     <g id="text_5">
      <!-- 800 -->
      <g style="fill: #262626" transform="translate(255.911699 324.957594) scale(0.11 -0.11)">
       <defs>
        <path id="ArialMT-38" d="M 1131 2484 
Q 781 2613 612 2850 
Q 444 3088 444 3419 
Q 444 3919 803 4259 
Q 1163 4600 1759 4600 
Q 2359 4600 2725 4251 
Q 3091 3903 3091 3403 
Q 3091 3084 2923 2848 
Q 2756 2613 2416 2484 
Q 2838 2347 3058 2040 
Q 3278 1734 3278 1309 
Q 3278 722 2862 322 
Q 2447 -78 1769 -78 
Q 1091 -78 675 323 
Q 259 725 259 1325 
Q 259 1772 486 2073 
Q 713 2375 1131 2484 
z
M 1019 3438 
Q 1019 3113 1228 2906 
Q 1438 2700 1772 2700 
Q 2097 2700 2305 2904 
Q 2513 3109 2513 3406 
Q 2513 3716 2298 3927 
Q 2084 4138 1766 4138 
Q 1444 4138 1231 3931 
Q 1019 3725 1019 3438 
z
M 838 1322 
Q 838 1081 952 856 
Q 1066 631 1291 507 
Q 1516 384 1775 384 
Q 2178 384 2440 643 
Q 2703 903 2703 1303 
Q 2703 1709 2433 1975 
Q 2163 2241 1756 2241 
Q 1359 2241 1098 1978 
Q 838 1716 838 1322 
z
" transform="scale(0.015625)"/>
       </defs>
       <use xlink:href="#ArialMT-38"/>
       <use xlink:href="#ArialMT-30" x="55.615234"/>
       <use xlink:href="#ArialMT-30" x="111.230469"/>
      </g>
     </g>
    </g>
    <g id="xtick_6">
     <g id="line2d_6">
      <path d="M 312.900876 307.584 
L 312.900876 41.472 
" clip-path="url(#p1124e95527)" style="fill: none; stroke: #ffffff; stroke-linecap: round"/>
     </g>
     <g id="text_6">
      <!-- 1000 -->
      <g style="fill: #262626" transform="translate(300.666813 324.957594) scale(0.11 -0.11)">
       <defs>
        <path id="ArialMT-31" d="M 2384 0 
L 1822 0 
L 1822 3584 
Q 1619 3391 1289 3197 
Q 959 3003 697 2906 
L 697 3450 
Q 1169 3672 1522 3987 
Q 1875 4303 2022 4600 
L 2384 4600 
L 2384 0 
z
" transform="scale(0.015625)"/>
       </defs>
       <use xlink:href="#ArialMT-31"/>
       <use xlink:href="#ArialMT-30" x="55.615234"/>
       <use xlink:href="#ArialMT-30" x="111.230469"/>
       <use xlink:href="#ArialMT-30" x="166.845703"/>
      </g>
     </g>
    </g>
    <g id="xtick_7">
     <g id="line2d_7">
      <path d="M 360.714505 307.584 
L 360.714505 41.472 
" clip-path="url(#p1124e95527)" style="fill: none; stroke: #ffffff; stroke-linecap: round"/>
     </g>
     <g id="text_7">
      <!-- 1200 -->
      <g style="fill: #262626" transform="translate(348.480443 324.957594) scale(0.11 -0.11)">
       <use xlink:href="#ArialMT-31"/>
       <use xlink:href="#ArialMT-32" x="55.615234"/>
       <use xlink:href="#ArialMT-30" x="111.230469"/>
       <use xlink:href="#ArialMT-30" x="166.845703"/>
      </g>
     </g>
    </g>
    <g id="xtick_8">
     <g id="line2d_8">
      <path d="M 408.528135 307.584 
L 408.528135 41.472 
" clip-path="url(#p1124e95527)" style="fill: none; stroke: #ffffff; stroke-linecap: round"/>
     </g>
     <g id="text_8">
      <!-- 1400 -->
      <g style="fill: #262626" transform="translate(396.294072 324.957594) scale(0.11 -0.11)">
       <use xlink:href="#ArialMT-31"/>
       <use xlink:href="#ArialMT-34" x="55.615234"/>
       <use xlink:href="#ArialMT-30" x="111.230469"/>
       <use xlink:href="#ArialMT-30" x="166.845703"/>
      </g>
     </g>
    </g>
    <g id="text_9">
     <!-- Batch iterations -->
     <g style="fill: #262626" transform="translate(194.806875 339.733219) scale(0.12 -0.12)">
      <defs>
       <path id="ArialMT-42" d="M 469 0 
L 469 4581 
L 2188 4581 
Q 2713 4581 3030 4442 
Q 3347 4303 3526 4014 
Q 3706 3725 3706 3409 
Q 3706 3116 3547 2856 
Q 3388 2597 3066 2438 
Q 3481 2316 3704 2022 
Q 3928 1728 3928 1328 
Q 3928 1006 3792 729 
Q 3656 453 3456 303 
Q 3256 153 2954 76 
Q 2653 0 2216 0 
L 469 0 
z
M 1075 2656 
L 2066 2656 
Q 2469 2656 2644 2709 
Q 2875 2778 2992 2937 
Q 3109 3097 3109 3338 
Q 3109 3566 3000 3739 
Q 2891 3913 2687 3977 
Q 2484 4041 1991 4041 
L 1075 4041 
L 1075 2656 
z
M 1075 541 
L 2216 541 
Q 2509 541 2628 563 
Q 2838 600 2978 687 
Q 3119 775 3209 942 
Q 3300 1109 3300 1328 
Q 3300 1584 3169 1773 
Q 3038 1963 2805 2039 
Q 2572 2116 2134 2116 
L 1075 2116 
L 1075 541 
z
" transform="scale(0.015625)"/>
       <path id="ArialMT-61" d="M 2588 409 
Q 2275 144 1986 34 
Q 1697 -75 1366 -75 
Q 819 -75 525 192 
Q 231 459 231 875 
Q 231 1119 342 1320 
Q 453 1522 633 1644 
Q 813 1766 1038 1828 
Q 1203 1872 1538 1913 
Q 2219 1994 2541 2106 
Q 2544 2222 2544 2253 
Q 2544 2597 2384 2738 
Q 2169 2928 1744 2928 
Q 1347 2928 1158 2789 
Q 969 2650 878 2297 
L 328 2372 
Q 403 2725 575 2942 
Q 747 3159 1072 3276 
Q 1397 3394 1825 3394 
Q 2250 3394 2515 3294 
Q 2781 3194 2906 3042 
Q 3031 2891 3081 2659 
Q 3109 2516 3109 2141 
L 3109 1391 
Q 3109 606 3145 398 
Q 3181 191 3288 0 
L 2700 0 
Q 2613 175 2588 409 
z
M 2541 1666 
Q 2234 1541 1622 1453 
Q 1275 1403 1131 1340 
Q 988 1278 909 1158 
Q 831 1038 831 891 
Q 831 666 1001 516 
Q 1172 366 1500 366 
Q 1825 366 2078 508 
Q 2331 650 2450 897 
Q 2541 1088 2541 1459 
L 2541 1666 
z
" transform="scale(0.015625)"/>
       <path id="ArialMT-74" d="M 1650 503 
L 1731 6 
Q 1494 -44 1306 -44 
Q 1000 -44 831 53 
Q 663 150 594 308 
Q 525 466 525 972 
L 525 2881 
L 113 2881 
L 113 3319 
L 525 3319 
L 525 4141 
L 1084 4478 
L 1084 3319 
L 1650 3319 
L 1650 2881 
L 1084 2881 
L 1084 941 
Q 1084 700 1114 631 
Q 1144 563 1211 522 
Q 1278 481 1403 481 
Q 1497 481 1650 503 
z
" transform="scale(0.015625)"/>
       <path id="ArialMT-63" d="M 2588 1216 
L 3141 1144 
Q 3050 572 2676 248 
Q 2303 -75 1759 -75 
Q 1078 -75 664 370 
Q 250 816 250 1647 
Q 250 2184 428 2587 
Q 606 2991 970 3192 
Q 1334 3394 1763 3394 
Q 2303 3394 2647 3120 
Q 2991 2847 3088 2344 
L 2541 2259 
Q 2463 2594 2264 2762 
Q 2066 2931 1784 2931 
Q 1359 2931 1093 2626 
Q 828 2322 828 1663 
Q 828 994 1084 691 
Q 1341 388 1753 388 
Q 2084 388 2306 591 
Q 2528 794 2588 1216 
z
" transform="scale(0.015625)"/>
       <path id="ArialMT-68" d="M 422 0 
L 422 4581 
L 984 4581 
L 984 2938 
Q 1378 3394 1978 3394 
Q 2347 3394 2619 3248 
Q 2891 3103 3008 2847 
Q 3125 2591 3125 2103 
L 3125 0 
L 2563 0 
L 2563 2103 
Q 2563 2525 2380 2717 
Q 2197 2909 1863 2909 
Q 1613 2909 1392 2779 
Q 1172 2650 1078 2428 
Q 984 2206 984 1816 
L 984 0 
L 422 0 
z
" transform="scale(0.015625)"/>
       <path id="ArialMT-20" transform="scale(0.015625)"/>
       <path id="ArialMT-69" d="M 425 3934 
L 425 4581 
L 988 4581 
L 988 3934 
L 425 3934 
z
M 425 0 
L 425 3319 
L 988 3319 
L 988 0 
L 425 0 
z
" transform="scale(0.015625)"/>
       <path id="ArialMT-65" d="M 2694 1069 
L 3275 997 
Q 3138 488 2766 206 
Q 2394 -75 1816 -75 
Q 1088 -75 661 373 
Q 234 822 234 1631 
Q 234 2469 665 2931 
Q 1097 3394 1784 3394 
Q 2450 3394 2872 2941 
Q 3294 2488 3294 1666 
Q 3294 1616 3291 1516 
L 816 1516 
Q 847 969 1125 678 
Q 1403 388 1819 388 
Q 2128 388 2347 550 
Q 2566 713 2694 1069 
z
M 847 1978 
L 2700 1978 
Q 2663 2397 2488 2606 
Q 2219 2931 1791 2931 
Q 1403 2931 1139 2672 
Q 875 2413 847 1978 
z
" transform="scale(0.015625)"/>
       <path id="ArialMT-72" d="M 416 0 
L 416 3319 
L 922 3319 
L 922 2816 
Q 1116 3169 1280 3281 
Q 1444 3394 1641 3394 
Q 1925 3394 2219 3213 
L 2025 2691 
Q 1819 2813 1613 2813 
Q 1428 2813 1281 2702 
Q 1134 2591 1072 2394 
Q 978 2094 978 1738 
L 978 0 
L 416 0 
z
" transform="scale(0.015625)"/>
       <path id="ArialMT-6f" d="M 213 1659 
Q 213 2581 725 3025 
Q 1153 3394 1769 3394 
Q 2453 3394 2887 2945 
Q 3322 2497 3322 1706 
Q 3322 1066 3130 698 
Q 2938 331 2570 128 
Q 2203 -75 1769 -75 
Q 1072 -75 642 372 
Q 213 819 213 1659 
z
M 791 1659 
Q 791 1022 1069 705 
Q 1347 388 1769 388 
Q 2188 388 2466 706 
Q 2744 1025 2744 1678 
Q 2744 2294 2464 2611 
Q 2184 2928 1769 2928 
Q 1347 2928 1069 2612 
Q 791 2297 791 1659 
z
" transform="scale(0.015625)"/>
       <path id="ArialMT-6e" d="M 422 0 
L 422 3319 
L 928 3319 
L 928 2847 
Q 1294 3394 1984 3394 
Q 2284 3394 2536 3286 
Q 2788 3178 2913 3003 
Q 3038 2828 3088 2588 
Q 3119 2431 3119 2041 
L 3119 0 
L 2556 0 
L 2556 2019 
Q 2556 2363 2490 2533 
Q 2425 2703 2258 2804 
Q 2091 2906 1866 2906 
Q 1506 2906 1245 2678 
Q 984 2450 984 1813 
L 984 0 
L 422 0 
z
" transform="scale(0.015625)"/>
       <path id="ArialMT-73" d="M 197 991 
L 753 1078 
Q 800 744 1014 566 
Q 1228 388 1613 388 
Q 2000 388 2187 545 
Q 2375 703 2375 916 
Q 2375 1106 2209 1216 
Q 2094 1291 1634 1406 
Q 1016 1563 777 1677 
Q 538 1791 414 1992 
Q 291 2194 291 2438 
Q 291 2659 392 2848 
Q 494 3038 669 3163 
Q 800 3259 1026 3326 
Q 1253 3394 1513 3394 
Q 1903 3394 2198 3281 
Q 2494 3169 2634 2976 
Q 2775 2784 2828 2463 
L 2278 2388 
Q 2241 2644 2061 2787 
Q 1881 2931 1553 2931 
Q 1166 2931 1000 2803 
Q 834 2675 834 2503 
Q 834 2394 903 2306 
Q 972 2216 1119 2156 
Q 1203 2125 1616 2013 
Q 2213 1853 2448 1751 
Q 2684 1650 2818 1456 
Q 2953 1263 2953 975 
Q 2953 694 2789 445 
Q 2625 197 2315 61 
Q 2006 -75 1616 -75 
Q 969 -75 630 194 
Q 291 463 197 991 
z
" transform="scale(0.015625)"/>
      </defs>
      <use xlink:href="#ArialMT-42"/>
      <use xlink:href="#ArialMT-61" x="66.699219"/>
      <use xlink:href="#ArialMT-74" x="122.314453"/>
      <use xlink:href="#ArialMT-63" x="150.097656"/>
      <use xlink:href="#ArialMT-68" x="200.097656"/>
      <use xlink:href="#ArialMT-20" x="255.712891"/>
      <use xlink:href="#ArialMT-69" x="283.496094"/>
      <use xlink:href="#ArialMT-74" x="305.712891"/>
      <use xlink:href="#ArialMT-65" x="333.496094"/>
      <use xlink:href="#ArialMT-72" x="389.111328"/>
      <use xlink:href="#ArialMT-61" x="422.412109"/>
      <use xlink:href="#ArialMT-74" x="478.027344"/>
      <use xlink:href="#ArialMT-69" x="505.810547"/>
      <use xlink:href="#ArialMT-6f" x="528.027344"/>
      <use xlink:href="#ArialMT-6e" x="583.642578"/>
      <use xlink:href="#ArialMT-73" x="639.257812"/>
     </g>
    </g>
   </g>
   <g id="matplotlib.axis_2">
    <g id="ytick_1">
     <g id="line2d_9">
      <path d="M 57.6 270.932805 
L 414.72 270.932805 
" clip-path="url(#p1124e95527)" style="fill: none; stroke: #ffffff; stroke-linecap: round"/>
     </g>
     <g id="text_10">
      <!-- 4.2 -->
      <g style="fill: #262626" transform="translate(32.81 274.869602) scale(0.11 -0.11)">
       <defs>
        <path id="ArialMT-2e" d="M 581 0 
L 581 641 
L 1222 641 
L 1222 0 
L 581 0 
z
" transform="scale(0.015625)"/>
       </defs>
       <use xlink:href="#ArialMT-34"/>
       <use xlink:href="#ArialMT-2e" x="55.615234"/>
       <use xlink:href="#ArialMT-32" x="83.398438"/>
      </g>
     </g>
    </g>
    <g id="ytick_2">
     <g id="line2d_10">
      <path d="M 57.6 217.034415 
L 414.72 217.034415 
" clip-path="url(#p1124e95527)" style="fill: none; stroke: #ffffff; stroke-linecap: round"/>
     </g>
     <g id="text_11">
      <!-- 4.3 -->
      <g style="fill: #262626" transform="translate(32.81 220.971212) scale(0.11 -0.11)">
       <defs>
        <path id="ArialMT-33" d="M 269 1209 
L 831 1284 
Q 928 806 1161 595 
Q 1394 384 1728 384 
Q 2125 384 2398 659 
Q 2672 934 2672 1341 
Q 2672 1728 2419 1979 
Q 2166 2231 1775 2231 
Q 1616 2231 1378 2169 
L 1441 2663 
Q 1497 2656 1531 2656 
Q 1891 2656 2178 2843 
Q 2466 3031 2466 3422 
Q 2466 3731 2256 3934 
Q 2047 4138 1716 4138 
Q 1388 4138 1169 3931 
Q 950 3725 888 3313 
L 325 3413 
Q 428 3978 793 4289 
Q 1159 4600 1703 4600 
Q 2078 4600 2393 4439 
Q 2709 4278 2876 4000 
Q 3044 3722 3044 3409 
Q 3044 3113 2884 2869 
Q 2725 2625 2413 2481 
Q 2819 2388 3044 2092 
Q 3269 1797 3269 1353 
Q 3269 753 2831 336 
Q 2394 -81 1725 -81 
Q 1122 -81 723 278 
Q 325 638 269 1209 
z
" transform="scale(0.015625)"/>
       </defs>
       <use xlink:href="#ArialMT-34"/>
       <use xlink:href="#ArialMT-2e" x="55.615234"/>
       <use xlink:href="#ArialMT-33" x="83.398438"/>
      </g>
     </g>
    </g>
    <g id="ytick_3">
     <g id="line2d_11">
      <path d="M 57.6 163.136025 
L 414.72 163.136025 
" clip-path="url(#p1124e95527)" style="fill: none; stroke: #ffffff; stroke-linecap: round"/>
     </g>
     <g id="text_12">
      <!-- 4.4 -->
      <g style="fill: #262626" transform="translate(32.81 167.072822) scale(0.11 -0.11)">
       <use xlink:href="#ArialMT-34"/>
       <use xlink:href="#ArialMT-2e" x="55.615234"/>
       <use xlink:href="#ArialMT-34" x="83.398438"/>
      </g>
     </g>
    </g>
    <g id="ytick_4">
     <g id="line2d_12">
      <path d="M 57.6 109.237635 
L 414.72 109.237635 
" clip-path="url(#p1124e95527)" style="fill: none; stroke: #ffffff; stroke-linecap: round"/>
     </g>
     <g id="text_13">
      <!-- 4.5 -->
      <g style="fill: #262626" transform="translate(32.81 113.174432) scale(0.11 -0.11)">
       <defs>
        <path id="ArialMT-35" d="M 266 1200 
L 856 1250 
Q 922 819 1161 601 
Q 1400 384 1738 384 
Q 2144 384 2425 690 
Q 2706 997 2706 1503 
Q 2706 1984 2436 2262 
Q 2166 2541 1728 2541 
Q 1456 2541 1237 2417 
Q 1019 2294 894 2097 
L 366 2166 
L 809 4519 
L 3088 4519 
L 3088 3981 
L 1259 3981 
L 1013 2750 
Q 1425 3038 1878 3038 
Q 2478 3038 2890 2622 
Q 3303 2206 3303 1553 
Q 3303 931 2941 478 
Q 2500 -78 1738 -78 
Q 1113 -78 717 272 
Q 322 622 266 1200 
z
" transform="scale(0.015625)"/>
       </defs>
       <use xlink:href="#ArialMT-34"/>
       <use xlink:href="#ArialMT-2e" x="55.615234"/>
       <use xlink:href="#ArialMT-35" x="83.398438"/>
      </g>
     </g>
    </g>
    <g id="ytick_5">
     <g id="line2d_13">
      <path d="M 57.6 55.339245 
L 414.72 55.339245 
" clip-path="url(#p1124e95527)" style="fill: none; stroke: #ffffff; stroke-linecap: round"/>
     </g>
     <g id="text_14">
      <!-- 4.6 -->
      <g style="fill: #262626" transform="translate(32.81 59.276042) scale(0.11 -0.11)">
       <use xlink:href="#ArialMT-34"/>
       <use xlink:href="#ArialMT-2e" x="55.615234"/>
       <use xlink:href="#ArialMT-36" x="83.398438"/>
      </g>
     </g>
    </g>
    <g id="text_15">
     <!-- NLLLoss -->
     <g style="fill: #262626" transform="translate(26.425 198.207375) rotate(-90) scale(0.12 -0.12)">
      <defs>
       <path id="ArialMT-4e" d="M 488 0 
L 488 4581 
L 1109 4581 
L 3516 984 
L 3516 4581 
L 4097 4581 
L 4097 0 
L 3475 0 
L 1069 3600 
L 1069 0 
L 488 0 
z
" transform="scale(0.015625)"/>
       <path id="ArialMT-4c" d="M 469 0 
L 469 4581 
L 1075 4581 
L 1075 541 
L 3331 541 
L 3331 0 
L 469 0 
z
" transform="scale(0.015625)"/>
      </defs>
      <use xlink:href="#ArialMT-4e"/>
      <use xlink:href="#ArialMT-4c" x="72.216797"/>
      <use xlink:href="#ArialMT-4c" x="127.832031"/>
      <use xlink:href="#ArialMT-4c" x="183.447266"/>
      <use xlink:href="#ArialMT-6f" x="239.0625"/>
      <use xlink:href="#ArialMT-73" x="294.677734"/>
      <use xlink:href="#ArialMT-73" x="344.677734"/>
     </g>
    </g>
   </g>
   <g id="line2d_14">
    <path d="M 73.832727 53.568 
L 74.310864 58.164169 
L 74.789 63.149216 
L 75.028068 64.069406 
L 75.267136 65.538538 
L 75.745272 73.0447 
L 75.984341 73.727852 
L 76.223409 75.059228 
L 76.462477 78.186933 
L 76.701545 78.805628 
L 76.940613 80.528889 
L 77.179681 84.931094 
L 77.418749 84.879821 
L 77.657818 85.947713 
L 77.896886 89.840915 
L 78.135954 90.517436 
L 78.375022 93.639872 
L 78.61409 93.644036 
L 78.853158 95.707009 
L 79.092227 101.967559 
L 79.331295 100.563219 
L 79.570363 98.358993 
L 80.048499 102.525548 
L 80.287567 107.576852 
L 80.526635 109.016942 
L 80.765704 105.815014 
L 81.004772 111.297422 
L 81.24384 107.418715 
L 81.482908 110.768937 
L 81.721976 112.485722 
L 81.961044 112.896831 
L 82.200112 118.943756 
L 82.439181 120.74155 
L 82.678249 123.835484 
L 82.917317 124.605889 
L 83.156385 122.533869 
L 83.395453 117.526385 
L 83.634521 127.242633 
L 83.87359 124.605607 
L 84.112658 126.7573 
L 84.351726 133.307189 
L 84.590794 132.699571 
L 84.829862 126.712426 
L 85.06893 136.852556 
L 85.307998 132.33642 
L 85.547067 143.149627 
L 85.786135 134.150045 
L 86.025203 134.382457 
L 86.264271 139.971317 
L 86.503339 133.950067 
L 86.742407 135.337677 
L 86.981475 135.342483 
L 87.220544 145.17937 
L 87.459612 144.836444 
L 87.69868 136.171743 
L 87.937748 144.544304 
L 88.176816 145.469326 
L 88.415884 147.221757 
L 88.654952 158.301199 
L 88.894021 148.262792 
L 89.133089 149.900547 
L 89.372157 137.504379 
L 89.611225 155.723439 
L 89.850293 155.25972 
L 90.089361 158.312558 
L 90.32843 165.604479 
L 90.806566 151.269343 
L 91.045634 158.900257 
L 91.284702 150.048738 
L 91.762838 161.645715 
L 92.001907 151.193732 
L 92.240975 151.516893 
L 92.480043 161.700894 
L 92.719111 150.810688 
L 92.958179 155.483779 
L 93.197247 170.195123 
L 93.436315 163.852664 
L 93.675384 166.237566 
L 93.914452 171.662353 
L 94.15352 163.362782 
L 94.392588 172.227718 
L 94.631656 170.417203 
L 94.870724 156.289241 
L 95.109792 173.600216 
L 95.348861 164.351156 
L 95.587929 167.778044 
L 95.826997 167.772107 
L 96.066065 169.663528 
L 96.305133 176.768322 
L 96.544201 173.107609 
L 96.78327 187.015984 
L 97.022338 176.80916 
L 97.261406 173.207662 
L 97.500474 175.456376 
L 97.739542 173.948409 
L 98.217678 176.45102 
L 98.456747 183.90244 
L 98.695815 173.691813 
L 98.934883 170.921991 
L 99.173951 179.693633 
L 99.652087 167.136244 
L 99.891155 179.339657 
L 100.130224 180.154808 
L 100.369292 175.991851 
L 100.60836 182.146076 
L 100.847428 177.354685 
L 101.325564 183.966204 
L 101.564632 189.373309 
L 101.803701 191.414026 
L 102.042769 176.954061 
L 102.281837 192.739517 
L 102.520905 190.850203 
L 102.759973 187.808441 
L 102.999041 170.646865 
L 103.477178 198.954704 
L 103.716246 194.373211 
L 103.955314 196.106958 
L 104.43345 169.951351 
L 104.672518 194.951915 
L 104.911587 189.402376 
L 105.150655 186.678867 
L 105.389723 187.515453 
L 105.628791 191.5396 
L 105.867859 201.300001 
L 106.106927 183.804418 
L 106.585064 189.494668 
L 106.824132 196.93077 
L 107.0632 186.793981 
L 107.302268 186.772983 
L 107.541336 208.608037 
L 107.780404 189.016274 
L 108.019472 196.23338 
L 108.258541 209.584203 
L 108.497609 201.217091 
L 108.736677 201.351583 
L 108.975745 195.964113 
L 109.214813 197.904135 
L 109.453881 195.725225 
L 109.69295 195.386334 
L 109.932018 198.557217 
L 110.171086 190.542642 
L 110.410154 197.826904 
L 110.649222 200.10764 
L 110.88829 189.154492 
L 111.127358 204.181981 
L 111.366427 187.514322 
L 111.605495 210.275861 
L 111.844563 204.635214 
L 112.083631 189.966225 
L 112.322699 201.229941 
L 112.561767 201.817512 
L 112.800835 205.504799 
L 113.039904 184.464464 
L 113.278972 204.386199 
L 113.51804 209.836738 
L 113.757108 200.906111 
L 114.235244 191.647928 
L 114.474312 202.760395 
L 114.713381 202.287527 
L 114.952449 183.586295 
L 115.191517 189.278858 
L 115.430585 203.562284 
L 115.669653 210.110631 
L 115.908721 206.585413 
L 116.14779 199.415005 
L 116.386858 211.500502 
L 116.625926 187.62008 
L 117.104062 203.897217 
L 117.34313 193.682631 
L 117.582198 191.891212 
L 117.821267 192.36665 
L 118.060335 229.480005 
L 118.299403 214.18379 
L 118.538471 206.970102 
L 118.777539 195.166233 
L 119.016607 198.574333 
L 119.255675 204.951513 
L 119.733812 186.620681 
L 119.97288 201.597307 
L 120.211948 204.894971 
L 120.451016 214.161713 
L 120.690084 207.726526 
L 120.929152 185.307989 
L 121.168221 209.055975 
L 121.407289 220.802068 
L 121.646357 207.109631 
L 121.885425 201.205397 
L 122.124493 190.276228 
L 122.60263 205.305464 
L 122.841698 203.109848 
L 123.080766 224.727884 
L 123.319834 202.42094 
L 123.558902 206.628153 
L 123.79797 207.927917 
L 124.037038 209.923504 
L 124.276107 207.612826 
L 124.515175 198.732984 
L 124.993311 195.206455 
L 125.232379 188.400715 
L 125.471447 204.621078 
L 125.710515 199.6798 
L 125.949584 189.814411 
L 126.188652 196.874871 
L 126.42772 197.565322 
L 126.666788 211.480379 
L 126.905856 208.993985 
L 127.144924 209.772949 
L 127.623061 193.441327 
L 127.862129 193.250525 
L 128.101197 212.604504 
L 128.340265 178.899069 
L 128.818401 220.189516 
L 129.05747 193.099481 
L 129.296538 208.775631 
L 129.535606 198.975599 
L 129.774674 204.77261 
L 130.013742 222.181556 
L 130.25281 203.902177 
L 130.491878 218.666772 
L 130.730947 211.132236 
L 130.970015 195.397386 
L 131.209083 229.201383 
L 131.448151 198.114958 
L 131.687219 216.938474 
L 131.926287 225.6967 
L 132.165355 208.027739 
L 132.404424 222.338202 
L 132.643492 193.315419 
L 132.88256 219.182227 
L 133.121628 204.795818 
L 133.360696 231.488776 
L 133.838833 189.752266 
L 134.077901 215.194395 
L 134.316969 200.30808 
L 134.556037 218.520098 
L 134.795105 215.245436 
L 135.034173 208.975943 
L 135.273241 191.715341 
L 135.51231 208.771416 
L 135.751378 207.829458 
L 135.990446 214.920707 
L 136.229514 214.446631 
L 136.468582 211.319312 
L 136.70765 205.227925 
L 136.946718 220.102494 
L 137.185787 203.366856 
L 137.663923 210.293029 
L 137.902991 216.706602 
L 138.142059 219.404718 
L 138.381127 201.28895 
L 138.620195 225.106019 
L 138.859264 212.968427 
L 139.098332 224.824596 
L 139.3374 215.731823 
L 139.576468 217.24056 
L 139.815536 213.087704 
L 140.054604 215.806304 
L 140.293673 195.577471 
L 140.532741 219.968156 
L 140.771809 193.564434 
L 141.010877 224.507655 
L 141.249945 216.552834 
L 141.489013 214.68827 
L 141.728081 205.036942 
L 141.96715 225.139405 
L 142.206218 204.785075 
L 142.445286 202.230882 
L 142.684354 221.349983 
L 143.16249 208.405849 
L 143.640627 223.335751 
L 144.118763 215.185785 
L 144.357831 200.941758 
L 144.596899 204.196502 
L 144.835967 213.618759 
L 145.075035 194.550931 
L 145.314104 213.677459 
L 145.553172 217.891458 
L 145.79224 219.159456 
L 146.031308 188.857392 
L 146.270376 224.544818 
L 146.509444 210.785276 
L 146.748513 209.141122 
L 147.226649 221.554484 
L 147.465717 225.199005 
L 147.704785 209.777884 
L 147.943853 221.820409 
L 148.182921 217.303296 
L 148.42199 222.081092 
L 148.661058 220.7583 
L 148.900126 207.005672 
L 149.139194 203.840675 
L 149.378262 209.153407 
L 149.61733 220.668167 
L 150.095467 208.564808 
L 150.334535 226.548192 
L 150.573603 206.852135 
L 150.812671 238.239439 
L 151.051739 203.722452 
L 151.290807 222.886965 
L 151.529875 230.397548 
L 152.008012 218.166404 
L 152.24708 220.438403 
L 152.486148 215.116804 
L 152.725216 191.088577 
L 152.964284 189.180219 
L 153.203353 220.791274 
L 153.442421 227.242266 
L 153.681489 212.891247 
L 154.159625 220.572586 
L 154.398693 203.144981 
L 154.637761 239.094478 
L 154.87683 236.074408 
L 155.354966 201.254537 
L 155.594034 221.77019 
L 155.833102 212.077176 
L 156.311238 226.4128 
L 156.550307 203.580583 
L 156.789375 249.741581 
L 157.267511 209.616688 
L 157.506579 215.813038 
L 157.745647 227.971422 
L 157.984715 233.534762 
L 158.223784 228.26549 
L 158.462852 201.615735 
L 158.70192 213.871037 
L 158.940988 209.324291 
L 159.180056 233.076209 
L 159.419124 212.119685 
L 159.658193 216.018978 
L 159.897261 212.831596 
L 160.136329 241.799919 
L 160.375397 202.299786 
L 160.614465 193.56559 
L 161.092601 219.288191 
L 161.33167 217.478883 
L 161.570738 222.367064 
L 161.809806 209.292628 
L 162.048874 210.160079 
L 162.287942 219.011291 
L 162.52701 193.067869 
L 162.766078 227.548799 
L 163.005147 226.423826 
L 163.244215 230.675039 
L 163.483283 225.769356 
L 163.722351 212.695151 
L 163.961419 215.59507 
L 164.200487 203.743706 
L 164.439555 211.140795 
L 164.678624 207.468157 
L 164.917692 213.478432 
L 165.15676 223.588467 
L 165.634896 209.315373 
L 165.873964 236.582383 
L 166.113033 184.004729 
L 166.352101 236.675471 
L 166.591169 212.374739 
L 166.830237 207.173909 
L 167.069305 221.375529 
L 167.308373 218.52696 
L 167.547441 202.402769 
L 167.78651 215.329529 
L 168.025578 187.562973 
L 168.264646 214.139122 
L 168.503714 207.78222 
L 168.742782 205.653144 
L 168.98185 221.225822 
L 169.220918 224.929147 
L 169.459987 197.575088 
L 169.699055 202.760781 
L 169.938123 221.217521 
L 170.416259 223.430741 
L 171.133464 192.686676 
L 171.372532 242.032383 
L 171.6116 221.276967 
L 171.850668 222.684469 
L 172.089736 211.802975 
L 172.567873 232.18758 
L 172.806941 213.125921 
L 173.046009 221.179638 
L 173.285077 205.769954 
L 173.524145 219.538491 
L 173.763213 218.173241 
L 174.002281 197.457533 
L 174.24135 206.006323 
L 174.719486 213.891366 
L 174.958554 238.916243 
L 175.197622 211.584904 
L 175.43669 212.456288 
L 175.675758 202.46607 
L 175.914827 226.622261 
L 176.153895 226.233435 
L 176.392963 223.770737 
L 176.632031 232.595913 
L 176.871099 225.147269 
L 177.110167 230.026763 
L 177.588304 204.52357 
L 177.827372 220.625093 
L 178.06644 216.891544 
L 178.305508 204.106883 
L 178.783644 219.812898 
L 179.022713 223.812449 
L 179.261781 208.217205 
L 179.500849 231.164201 
L 179.739917 231.631647 
L 179.978985 208.435045 
L 180.218053 223.605712 
L 180.457121 221.235511 
L 180.935258 187.911707 
L 181.174326 226.9776 
L 181.413394 212.989707 
L 181.652462 217.715022 
L 181.89153 232.816195 
L 182.369667 195.71862 
L 182.608735 228.879379 
L 182.847803 212.585588 
L 183.086871 223.940542 
L 183.565007 181.406229 
L 184.043144 242.767244 
L 184.52128 206.641106 
L 184.760348 221.605525 
L 185.238484 208.063129 
L 185.477553 234.001925 
L 185.955689 203.968742 
L 186.194757 224.763377 
L 186.433825 217.345137 
L 186.672893 228.440641 
L 186.911961 210.743615 
L 187.15103 214.575623 
L 187.390098 247.912844 
L 187.868234 207.420919 
L 188.107302 213.0848 
L 188.34637 209.913147 
L 188.585438 232.537984 
L 188.824507 229.156895 
L 189.063575 204.946039 
L 189.302643 225.505641 
L 189.541711 201.699108 
L 190.019847 212.426423 
L 190.258916 205.385419 
L 190.497984 229.602289 
L 190.737052 227.821227 
L 190.97612 235.694679 
L 191.215188 232.59964 
L 191.454256 220.240455 
L 191.693324 194.836467 
L 191.932393 228.153358 
L 192.171461 210.165528 
L 192.410529 215.018704 
L 192.649597 235.860989 
L 192.888665 229.377434 
L 193.127733 204.088173 
L 193.366801 235.971605 
L 193.60587 213.245121 
L 193.844938 251.157127 
L 194.084006 214.173586 
L 194.323074 211.310497 
L 194.562142 224.599946 
L 194.80121 203.019048 
L 195.040278 208.01512 
L 195.279347 202.089091 
L 195.518415 231.742443 
L 195.757483 224.628577 
L 195.996551 195.62805 
L 196.235619 219.294745 
L 196.474687 219.759389 
L 196.713756 218.390798 
L 196.952824 248.434646 
L 197.191892 218.298995 
L 197.43096 219.142596 
L 197.670028 185.880962 
L 197.909096 231.440459 
L 198.148164 225.61438 
L 198.387233 232.763071 
L 198.626301 249.044063 
L 199.104437 207.390335 
L 199.343505 224.694036 
L 199.582573 201.541588 
L 200.06071 224.942974 
L 200.299778 197.497446 
L 200.538846 199.278637 
L 200.777914 222.217357 
L 201.016982 194.739755 
L 201.25605 204.629662 
L 201.495118 235.191099 
L 201.734187 219.937649 
L 201.973255 221.144582 
L 202.212323 232.425415 
L 202.451391 213.485397 
L 202.690459 230.159559 
L 202.929527 228.447786 
L 203.168596 194.995709 
L 203.407664 231.377286 
L 203.646732 205.114996 
L 203.8858 215.852103 
L 204.124868 213.802956 
L 204.363936 216.483647 
L 204.603004 229.255406 
L 204.842073 222.085153 
L 205.081141 249.670904 
L 205.559277 212.657036 
L 205.798345 220.991688 
L 206.037413 217.60253 
L 206.276481 219.257324 
L 206.51555 218.673866 
L 206.754618 233.542986 
L 206.993686 211.889046 
L 207.232754 203.18803 
L 207.471822 222.921841 
L 207.949958 195.226039 
L 208.189027 217.455881 
L 208.428095 221.094132 
L 208.667163 211.897579 
L 208.906231 224.611074 
L 209.145299 214.781641 
L 209.384367 215.675359 
L 209.623436 221.861762 
L 209.862504 232.211687 
L 210.101572 234.738971 
L 210.34064 205.343989 
L 210.579708 234.281446 
L 211.057844 225.899428 
L 211.296913 194.534586 
L 211.775049 238.57964 
L 212.014117 230.92814 
L 212.253185 235.325 
L 212.731321 187.599031 
L 212.97039 231.198075 
L 213.448526 216.028384 
L 213.926662 222.528285 
L 214.16573 239.029635 
L 214.404799 206.399596 
L 214.643867 214.712043 
L 214.882935 217.181166 
L 215.122003 228.43676 
L 215.361071 210.780933 
L 215.600139 210.335821 
L 215.839207 244.420754 
L 216.078276 211.531652 
L 216.317344 223.768912 
L 216.556412 246.614802 
L 216.79548 231.26189 
L 217.034548 231.076048 
L 217.273616 223.158005 
L 217.512684 225.991668 
L 217.751753 219.314277 
L 217.990821 218.803912 
L 218.229889 221.930383 
L 218.468957 211.484362 
L 218.708025 225.250946 
L 218.947093 222.561979 
L 219.186161 210.728349 
L 219.42523 233.575498 
L 219.664298 207.587485 
L 219.903366 237.916638 
L 220.142434 230.776583 
L 220.381502 206.634733 
L 220.62057 224.582058 
L 220.859639 224.385473 
L 221.098707 228.670252 
L 221.337775 194.906064 
L 221.576843 224.295572 
L 221.815911 234.739459 
L 222.054979 220.56999 
L 222.294047 216.484367 
L 222.533116 205.542836 
L 222.772184 222.468608 
L 223.011252 219.792594 
L 223.25032 196.37404 
L 223.489388 203.556013 
L 223.967524 232.900981 
L 224.206593 226.896951 
L 224.445661 214.903359 
L 224.684729 232.446438 
L 224.923797 197.493282 
L 225.401933 221.43608 
L 225.641001 204.711545 
L 225.88007 205.32916 
L 226.119138 202.425155 
L 226.358206 255.833097 
L 226.836342 223.587645 
L 227.07541 207.037926 
L 227.553547 220.994181 
L 228.031683 196.01094 
L 228.270751 214.497185 
L 228.748887 233.884575 
L 228.987956 223.994873 
L 229.227024 193.146051 
L 229.466092 227.555713 
L 229.70516 240.925502 
L 229.944228 223.659401 
L 230.183296 217.513477 
L 230.422364 202.892883 
L 230.661433 214.989483 
L 230.900501 219.713307 
L 231.139569 215.932315 
L 231.378637 246.515854 
L 231.617705 218.833827 
L 232.095841 223.122307 
L 232.33491 224.021319 
L 232.573978 222.92567 
L 233.052114 213.030391 
L 233.291182 212.571376 
L 233.53025 201.237985 
L 233.769319 219.704852 
L 234.008387 216.418702 
L 234.247455 205.049664 
L 234.725591 216.939399 
L 234.964659 229.041525 
L 235.203727 225.453725 
L 235.442796 230.717522 
L 235.920932 202.959602 
L 236.16 211.633118 
L 236.399068 229.806739 
L 236.638136 194.503257 
L 236.877204 229.087426 
L 237.116273 241.675116 
L 237.355341 207.830178 
L 237.594409 226.481678 
L 237.833477 212.296455 
L 238.072545 218.347004 
L 238.311613 243.609021 
L 238.550681 223.220304 
L 238.78975 238.81033 
L 239.267886 218.602469 
L 239.506954 248.836632 
L 239.746022 214.875294 
L 240.224159 252.92079 
L 240.463227 239.101468 
L 240.702295 248.541921 
L 240.941363 214.598214 
L 241.180431 249.120985 
L 241.419499 226.22264 
L 241.658567 253.095838 
L 241.897636 227.526645 
L 242.136704 214.505692 
L 242.375772 241.00682 
L 242.61484 220.772564 
L 242.853908 247.89398 
L 243.092976 231.666908 
L 243.332044 233.001934 
L 243.571113 216.69501 
L 243.810181 227.766125 
L 244.049249 231.81091 
L 244.288317 242.413345 
L 244.527385 234.973773 
L 244.766453 236.801122 
L 245.005521 235.426723 
L 245.24459 254.546697 
L 245.483658 224.727113 
L 245.722726 228.034852 
L 245.961794 229.783069 
L 246.200862 236.407413 
L 246.43993 248.822548 
L 246.678999 237.801627 
L 246.918067 238.208804 
L 247.157135 231.200414 
L 247.396203 242.962056 
L 247.635271 240.333383 
L 247.874339 246.80419 
L 248.113407 238.825828 
L 248.352476 250.611552 
L 248.591544 218.954441 
L 248.830612 243.943928 
L 249.06968 223.666906 
L 249.308748 248.382063 
L 249.547816 246.277068 
L 249.786884 239.487468 
L 250.025953 236.898862 
L 250.265021 254.832078 
L 250.504089 228.203063 
L 250.743157 233.115968 
L 250.982225 247.355806 
L 251.221293 246.566638 
L 251.460361 231.875033 
L 251.69943 245.640229 
L 251.938498 248.764952 
L 252.177566 241.19536 
L 252.416634 249.941661 
L 252.655702 236.633271 
L 252.89477 237.435828 
L 253.133839 255.960984 
L 253.372907 224.608376 
L 253.851043 255.480945 
L 254.329179 216.821869 
L 254.568247 251.367899 
L 254.807316 229.594965 
L 255.046384 233.206563 
L 255.285452 244.843043 
L 255.52452 246.58337 
L 255.763588 255.30451 
L 256.002656 233.316126 
L 256.241724 258.591713 
L 256.480793 251.953362 
L 256.719861 257.726549 
L 257.437065 230.230801 
L 257.915201 252.79005 
L 258.15427 236.66095 
L 258.393338 233.642345 
L 258.632406 266.998122 
L 258.871474 247.261664 
L 259.110542 268.3589 
L 259.34961 230.513638 
L 259.827747 277.495364 
L 260.066815 264.641131 
L 260.305883 242.729721 
L 260.544951 251.739327 
L 261.262156 212.015957 
L 261.501224 249.607243 
L 261.740292 264.826434 
L 261.97936 240.241323 
L 262.218428 255.722995 
L 262.457496 250.898552 
L 262.696564 243.420069 
L 262.935633 272.024676 
L 263.652837 234.596949 
L 263.891905 257.910875 
L 264.130973 240.200201 
L 264.370042 260.719222 
L 264.60911 248.337652 
L 264.848178 227.000962 
L 265.087246 277.522555 
L 265.326314 270.901296 
L 265.565382 258.57015 
L 265.80445 253.633652 
L 266.043519 262.101845 
L 266.282587 277.24545 
L 266.521655 269.832504 
L 266.760723 220.844886 
L 266.999791 252.19369 
L 267.238859 229.462606 
L 267.477927 270.771455 
L 267.716996 238.298371 
L 267.956064 241.888921 
L 268.195132 248.783508 
L 268.4342 277.62983 
L 268.673268 234.46662 
L 268.912336 227.867026 
L 269.390473 257.422791 
L 269.629541 246.336874 
L 269.868609 249.482286 
L 270.107677 246.962841 
L 270.346745 238.800307 
L 270.585813 254.804399 
L 270.824882 219.538388 
L 271.06395 257.045093 
L 271.542086 270.25158 
L 271.781154 252.032469 
L 272.020222 243.940458 
L 272.25929 248.245412 
L 272.498359 246.196573 
L 272.737427 265.51416 
L 272.976495 249.204718 
L 273.215563 254.771784 
L 273.454631 273.069874 
L 273.693699 249.112093 
L 273.932767 249.808172 
L 274.171836 271.838114 
L 274.410904 224.404954 
L 274.649972 264.792894 
L 274.88904 243.567103 
L 275.128108 248.289848 
L 275.367176 267.189592 
L 275.606244 250.431287 
L 275.845313 247.10895 
L 276.084381 249.24972 
L 276.323449 232.365403 
L 276.562517 252.422812 
L 277.040653 231.060293 
L 277.279722 259.092852 
L 277.51879 265.170875 
L 277.757858 236.22044 
L 277.996926 231.089798 
L 278.235994 254.042937 
L 278.475062 253.073838 
L 278.71413 257.55109 
L 278.953199 241.108286 
L 279.192267 241.848622 
L 279.431335 223.436113 
L 279.670403 277.871597 
L 279.909471 255.710838 
L 280.148539 258.085717 
L 280.387607 251.88451 
L 280.626676 253.04896 
L 280.865744 259.791964 
L 281.104812 253.731778 
L 281.34388 261.689631 
L 281.582948 248.664308 
L 282.061084 266.904854 
L 282.300153 235.004999 
L 282.539221 235.559519 
L 282.778289 245.993254 
L 283.017357 242.740567 
L 283.256425 275.22875 
L 283.495493 238.187652 
L 283.734562 254.83984 
L 283.97363 235.695296 
L 284.212698 268.379537 
L 284.451766 271.078528 
L 284.690834 262.830179 
L 284.929902 274.745923 
L 285.16897 265.344535 
L 285.408039 269.349278 
L 285.647107 253.175253 
L 285.886175 249.372133 
L 286.125243 263.748673 
L 286.364311 263.050049 
L 286.603379 236.705336 
L 287.081516 256.84987 
L 287.320584 254.825165 
L 287.559652 243.670112 
L 287.79872 270.357108 
L 288.037788 259.082623 
L 288.276856 240.921956 
L 288.515924 268.995045 
L 288.754993 276.145972 
L 288.994061 255.942145 
L 289.233129 222.28256 
L 289.472197 279.787075 
L 289.711265 251.305498 
L 289.950333 263.795499 
L 290.189402 268.17167 
L 290.667538 249.694909 
L 290.906606 258.236169 
L 291.145674 248.775336 
L 291.384742 254.643743 
L 291.862879 211.646868 
L 292.101947 262.168796 
L 292.341015 276.584915 
L 292.580083 247.94533 
L 292.819151 237.557958 
L 293.058219 264.232978 
L 293.297287 262.56505 
L 293.536356 248.802578 
L 293.775424 269.529903 
L 294.014492 256.611676 
L 294.25356 236.18176 
L 294.492628 258.466165 
L 294.731696 252.024605 
L 294.970764 275.019302 
L 295.209833 250.531185 
L 295.448901 256.093523 
L 295.687969 283.629389 
L 296.166105 246.968727 
L 296.405173 271.085596 
L 296.644242 251.432768 
L 296.88331 275.062068 
L 297.122378 258.627077 
L 297.361446 251.651199 
L 297.600514 259.640304 
L 298.07865 235.167068 
L 298.317719 257.062133 
L 298.556787 237.235311 
L 298.795855 273.116701 
L 299.034923 265.829714 
L 299.273991 269.580097 
L 299.513059 277.422811 
L 299.752127 267.418046 
L 299.991196 233.685009 
L 300.230264 272.82235 
L 300.469332 245.593813 
L 300.7084 255.684881 
L 300.947468 282.125766 
L 301.186536 268.008778 
L 301.425604 240.900984 
L 301.664673 270.429096 
L 301.903741 250.618953 
L 302.142809 283.140612 
L 302.381877 253.117838 
L 302.620945 240.311357 
L 302.860013 268.215258 
L 303.099082 245.014904 
L 303.33815 251.362965 
L 303.577218 240.565589 
L 303.816286 275.261249 
L 304.055354 265.841639 
L 304.294422 241.715415 
L 304.53349 262.412182 
L 304.772559 265.248003 
L 305.011627 269.972085 
L 305.250695 285.149974 
L 305.489763 257.365787 
L 305.728831 249.77913 
L 305.967899 229.374401 
L 306.206967 273.615527 
L 306.446036 262.452429 
L 306.685104 278.850976 
L 306.924172 284.001356 
L 307.16324 282.267043 
L 307.402308 252.660133 
L 307.641376 258.950419 
L 307.880445 247.739287 
L 308.119513 260.557024 
L 308.358581 255.080476 
L 308.597649 237.797412 
L 308.836717 236.660642 
L 309.075785 270.772021 
L 309.314853 242.658402 
L 309.553922 239.379808 
L 309.79299 258.712224 
L 310.271126 249.203844 
L 310.510194 286.578242 
L 310.749262 246.002044 
L 310.98833 274.583109 
L 311.227399 260.46738 
L 311.466467 229.760401 
L 311.705535 285.104124 
L 311.944603 246.062364 
L 312.183671 248.814092 
L 312.422739 258.555758 
L 312.661807 256.718719 
L 312.900876 278.12768 
L 313.139944 275.107764 
L 313.379012 292.835759 
L 313.61808 260.432813 
L 313.857148 253.589704 
L 314.096216 265.184214 
L 314.335285 259.24058 
L 314.574353 247.043285 
L 314.813421 246.647442 
L 315.052489 264.848742 
L 315.291557 256.355927 
L 315.530625 230.411426 
L 315.769693 259.643491 
L 316.24783 233.964222 
L 316.486898 252.264162 
L 316.725966 261.853345 
L 316.965034 247.353287 
L 317.204102 271.120574 
L 317.44317 250.966196 
L 317.682239 250.824431 
L 317.921307 257.926038 
L 318.160375 269.756353 
L 318.399443 271.513256 
L 318.638511 249.790027 
L 318.877579 278.861153 
L 319.116647 283.055825 
L 319.355716 263.947262 
L 319.594784 230.980595 
L 319.833852 257.307447 
L 320.07292 268.204567 
L 320.311988 270.981482 
L 320.790125 231.260245 
L 321.029193 241.924388 
L 321.268261 270.028652 
L 321.746397 252.794959 
L 321.985465 259.589699 
L 322.224533 256.390623 
L 322.463602 279.60555 
L 322.941738 256.487824 
L 323.419874 267.347446 
L 323.658942 257.847753 
L 323.89801 256.853057 
L 324.137079 275.983234 
L 324.376147 254.89065 
L 324.615215 254.09331 
L 324.854283 295.488 
L 325.093351 268.207085 
L 325.332419 272.195586 
L 325.571487 255.73438 
L 325.810556 269.759951 
L 326.049624 254.964411 
L 326.288692 260.546358 
L 326.52776 275.83088 
L 326.766828 252.489377 
L 327.005896 266.944484 
L 327.244965 262.761018 
L 327.484033 251.274683 
L 327.723101 274.24355 
L 327.962169 260.256865 
L 328.201237 284.493088 
L 328.679373 250.57061 
L 328.918442 268.915244 
L 329.15751 260.172541 
L 329.396578 278.109676 
L 329.635646 248.913811 
L 329.874714 276.673711 
L 330.113782 258.655143 
L 330.35285 251.973203 
L 330.591919 241.306799 
L 330.830987 241.98314 
L 331.070055 266.15213 
L 331.309123 268.327185 
L 331.548191 246.175935 
L 331.787259 240.050186 
L 332.265396 276.192387 
L 332.743532 247.338072 
L 332.9826 271.975073 
L 333.221668 242.588675 
L 333.460736 261.421495 
L 333.699805 247.105172 
L 334.177941 252.008465 
L 334.417009 249.123684 
L 334.656077 288.826775 
L 335.134213 270.721904 
L 335.373282 246.823774 
L 335.61235 269.047731 
L 336.090486 247.016941 
L 336.568622 249.70799 
L 336.80769 267.211875 
L 337.046759 276.057304 
L 337.524895 235.21243 
L 337.763963 275.49474 
L 338.003031 285.655996 
L 338.242099 264.725584 
L 338.481167 261.634169 
L 338.720236 245.814917 
L 338.959304 262.70422 
L 339.198372 265.266456 
L 339.43744 254.957781 
L 339.676508 279.719636 
L 339.915576 255.837055 
L 340.154645 264.301136 
L 340.393713 254.136487 
L 340.632781 269.504023 
L 340.871849 265.59558 
L 341.110917 259.246543 
L 341.349985 260.667075 
L 341.589053 260.44574 
L 341.828122 243.368796 
L 342.06719 254.814448 
L 342.306258 258.244162 
L 342.545326 250.249839 
L 342.784394 248.573379 
L 343.023462 261.77596 
L 343.26253 256.931033 
L 343.501599 260.192819 
L 343.740667 272.651774 
L 344.218803 230.45409 
L 344.696939 262.269003 
L 344.936007 223.629614 
L 345.175076 268.782294 
L 345.414144 278.646809 
L 345.653212 232.275682 
L 345.89228 264.010692 
L 346.131348 247.818394 
L 346.370416 249.295313 
L 346.609485 284.042657 
L 346.848553 256.476592 
L 347.087621 273.748554 
L 347.565757 256.373789 
L 347.804825 280.112138 
L 348.043893 245.063889 
L 348.282962 268.763352 
L 348.52203 281.009377 
L 348.761098 267.9628 
L 349.000166 279.726678 
L 349.239234 241.537772 
L 349.478302 272.714561 
L 349.71737 257.642893 
L 349.956439 283.494717 
L 350.195507 248.212258 
L 350.434575 241.435046 
L 350.673643 271.68062 
L 350.912711 242.000642 
L 351.151779 273.713883 
L 351.390848 252.923772 
L 351.629916 254.018033 
L 351.868984 232.564507 
L 352.108052 247.902949 
L 352.34712 250.328381 
L 352.586188 270.923475 
L 352.825256 252.280276 
L 353.542461 280.515717 
L 353.781529 249.225947 
L 354.020597 249.289376 
L 354.259665 246.510945 
L 354.737802 271.023297 
L 354.97687 257.448081 
L 355.215938 257.746133 
L 355.455006 255.906318 
L 355.694074 258.337944 
L 355.933142 261.993671 
L 356.17221 276.701519 
L 356.411279 269.43774 
L 356.650347 279.756696 
L 356.889415 238.420553 
L 357.128483 267.120046 
L 357.367551 237.372424 
L 357.606619 276.912471 
L 357.845688 270.572968 
L 358.084756 255.040434 
L 358.323824 254.853616 
L 358.562892 273.802962 
L 358.80196 242.459812 
L 359.041028 252.370563 
L 359.280096 271.889849 
L 359.758233 251.233793 
L 359.997301 261.594795 
L 360.236369 266.806317 
L 360.475437 258.331904 
L 360.714505 273.105572 
L 360.953573 252.715107 
L 361.192642 256.681402 
L 361.43171 276.232018 
L 361.670778 242.487928 
L 362.148914 275.55637 
L 362.62705 234.25022 
L 362.866119 268.880728 
L 363.105187 237.894381 
L 363.344255 242.722396 
L 363.583323 259.941671 
L 364.061459 274.51477 
L 364.300528 249.184774 
L 364.539596 278.835941 
L 364.778664 268.900646 
L 365.017732 276.653304 
L 365.2568 271.032935 
L 365.495868 249.697067 
L 365.734936 242.481066 
L 365.974005 253.597543 
L 366.213073 271.768516 
L 366.452141 249.533534 
L 366.691209 246.291203 
L 366.930277 284.822315 
L 367.169345 261.255391 
L 367.408413 287.851432 
L 367.647482 246.775842 
L 367.88655 265.662094 
L 368.125618 293.586992 
L 368.364686 282.75325 
L 368.603754 254.741869 
L 368.842822 264.965398 
L 369.320959 238.011756 
L 369.560027 219.557869 
L 369.799095 262.495735 
L 370.038163 278.224263 
L 370.277231 252.889769 
L 370.516299 271.17542 
L 370.994436 255.740703 
L 371.233504 286.562822 
L 371.950708 251.123562 
L 372.189776 267.632622 
L 372.428845 254.092359 
L 372.667913 274.536256 
L 373.146049 236.738464 
L 373.385117 289.795244 
L 373.624185 291.207693 
L 373.863253 271.715727 
L 374.102322 268.108857 
L 374.34139 275.329124 
L 374.580458 293.011488 
L 374.819526 286.001286 
L 375.058594 226.899804 
L 375.297662 267.999192 
L 375.53673 232.756852 
L 375.775799 284.748657 
L 376.014867 246.098987 
L 376.493003 263.632171 
L 376.732071 294.469299 
L 376.971139 243.675997 
L 377.210208 233.800996 
L 377.688344 267.774953 
L 377.927412 256.921704 
L 378.16648 259.079514 
L 378.405548 259.202851 
L 378.644616 246.415621 
L 378.883685 266.07346 
L 379.122753 228.990457 
L 379.361821 266.801177 
L 379.600889 273.68312 
L 379.839957 283.84363 
L 380.079025 260.649033 
L 380.318093 254.770139 
L 380.557162 255.64029 
L 380.79623 257.711745 
L 381.035298 278.178927 
L 381.274366 260.649033 
L 381.513434 265.770551 
L 381.752502 286.313653 
L 381.99157 256.144796 
L 382.230639 259.109853 
L 382.469707 283.283868 
L 382.708775 225.882748 
L 382.947843 276.861121 
L 383.186911 252.297239 
L 383.425979 258.552648 
L 383.665048 278.347164 
L 383.904116 259.283346 
L 384.143184 257.573886 
L 384.382252 258.415483 
L 384.62132 239.187746 
L 384.860388 261.196408 
L 385.338525 234.33182 
L 385.577593 270.210382 
L 385.816661 269.255985 
L 386.055729 245.365282 
L 386.294797 239.288416 
L 386.533865 263.253753 
L 386.772933 261.336785 
L 387.012002 267.276538 
L 387.25107 243.603855 
L 387.490138 246.065782 
L 387.729206 232.837706 
L 387.968274 285.619385 
L 388.207342 260.850039 
L 388.44641 264.927695 
L 388.924547 259.304035 
L 389.163615 266.43363 
L 389.402683 259.894407 
L 389.641751 272.272714 
L 389.880819 253.125445 
L 390.119888 268.381491 
L 390.358956 274.886442 
L 390.598024 239.701992 
L 390.837092 241.377604 
L 391.07616 255.894676 
L 391.315228 246.991755 
L 391.554296 286.533973 
L 391.793365 242.695796 
L 392.032433 260.984633 
L 392.271501 241.901489 
L 392.510569 279.095416 
L 392.749637 279.570289 
L 392.988705 271.301135 
L 393.227773 285.008491 
L 393.466842 273.258697 
L 393.70591 277.704054 
L 393.944978 260.603748 
L 394.184046 257.630274 
L 394.423114 270.559989 
L 394.662182 269.759925 
L 394.901251 239.211416 
L 395.140319 255.538926 
L 395.379387 262.321998 
L 395.618455 258.159735 
L 395.857523 249.596706 
L 396.096591 275.611062 
L 396.574728 247.260533 
L 396.813796 275.663106 
L 397.052864 280.953323 
L 397.291932 262.548062 
L 397.531 230.918451 
L 397.770068 290.95048 
L 398.009136 254.448083 
L 398.248205 271.165268 
L 398.487273 276.783839 
L 398.487273 276.783839 
" clip-path="url(#p1124e95527)" style="fill: none; stroke: #4c72b0; stroke-width: 1.5; stroke-linecap: round"/>
   </g>
   <g id="patch_3">
    <path d="M 57.6 307.584 
L 57.6 41.472 
" style="fill: none; stroke: #ffffff; stroke-width: 1.25; stroke-linejoin: miter; stroke-linecap: square"/>
   </g>
   <g id="patch_4">
    <path d="M 414.72 307.584 
L 414.72 41.472 
" style="fill: none; stroke: #ffffff; stroke-width: 1.25; stroke-linejoin: miter; stroke-linecap: square"/>
   </g>
   <g id="patch_5">
    <path d="M 57.6 307.584 
L 414.72 307.584 
" style="fill: none; stroke: #ffffff; stroke-width: 1.25; stroke-linejoin: miter; stroke-linecap: square"/>
   </g>
   <g id="patch_6">
    <path d="M 57.6 41.472 
L 414.72 41.472 
" style="fill: none; stroke: #ffffff; stroke-width: 1.25; stroke-linejoin: miter; stroke-linecap: square"/>
   </g>
   <g id="text_16">
    <!-- Negative Log-Likelihood loss per batch iteration -->
    <g style="fill: #262626" transform="translate(109.75875 35.472) scale(0.12 -0.12)">
     <defs>
      <path id="ArialMT-67" d="M 319 -275 
L 866 -356 
Q 900 -609 1056 -725 
Q 1266 -881 1628 -881 
Q 2019 -881 2231 -725 
Q 2444 -569 2519 -288 
Q 2563 -116 2559 434 
Q 2191 0 1641 0 
Q 956 0 581 494 
Q 206 988 206 1678 
Q 206 2153 378 2554 
Q 550 2956 876 3175 
Q 1203 3394 1644 3394 
Q 2231 3394 2613 2919 
L 2613 3319 
L 3131 3319 
L 3131 450 
Q 3131 -325 2973 -648 
Q 2816 -972 2473 -1159 
Q 2131 -1347 1631 -1347 
Q 1038 -1347 672 -1080 
Q 306 -813 319 -275 
z
M 784 1719 
Q 784 1066 1043 766 
Q 1303 466 1694 466 
Q 2081 466 2343 764 
Q 2606 1063 2606 1700 
Q 2606 2309 2336 2618 
Q 2066 2928 1684 2928 
Q 1309 2928 1046 2623 
Q 784 2319 784 1719 
z
" transform="scale(0.015625)"/>
      <path id="ArialMT-76" d="M 1344 0 
L 81 3319 
L 675 3319 
L 1388 1331 
Q 1503 1009 1600 663 
Q 1675 925 1809 1294 
L 2547 3319 
L 3125 3319 
L 1869 0 
L 1344 0 
z
" transform="scale(0.015625)"/>
      <path id="ArialMT-2d" d="M 203 1375 
L 203 1941 
L 1931 1941 
L 1931 1375 
L 203 1375 
z
" transform="scale(0.015625)"/>
      <path id="ArialMT-6b" d="M 425 0 
L 425 4581 
L 988 4581 
L 988 1969 
L 2319 3319 
L 3047 3319 
L 1778 2088 
L 3175 0 
L 2481 0 
L 1384 1697 
L 988 1316 
L 988 0 
L 425 0 
z
" transform="scale(0.015625)"/>
      <path id="ArialMT-6c" d="M 409 0 
L 409 4581 
L 972 4581 
L 972 0 
L 409 0 
z
" transform="scale(0.015625)"/>
      <path id="ArialMT-64" d="M 2575 0 
L 2575 419 
Q 2259 -75 1647 -75 
Q 1250 -75 917 144 
Q 584 363 401 755 
Q 219 1147 219 1656 
Q 219 2153 384 2558 
Q 550 2963 881 3178 
Q 1213 3394 1622 3394 
Q 1922 3394 2156 3267 
Q 2391 3141 2538 2938 
L 2538 4581 
L 3097 4581 
L 3097 0 
L 2575 0 
z
M 797 1656 
Q 797 1019 1065 703 
Q 1334 388 1700 388 
Q 2069 388 2326 689 
Q 2584 991 2584 1609 
Q 2584 2291 2321 2609 
Q 2059 2928 1675 2928 
Q 1300 2928 1048 2622 
Q 797 2316 797 1656 
z
" transform="scale(0.015625)"/>
      <path id="ArialMT-70" d="M 422 -1272 
L 422 3319 
L 934 3319 
L 934 2888 
Q 1116 3141 1344 3267 
Q 1572 3394 1897 3394 
Q 2322 3394 2647 3175 
Q 2972 2956 3137 2557 
Q 3303 2159 3303 1684 
Q 3303 1175 3120 767 
Q 2938 359 2589 142 
Q 2241 -75 1856 -75 
Q 1575 -75 1351 44 
Q 1128 163 984 344 
L 984 -1272 
L 422 -1272 
z
M 931 1641 
Q 931 1000 1190 694 
Q 1450 388 1819 388 
Q 2194 388 2461 705 
Q 2728 1022 2728 1688 
Q 2728 2322 2467 2637 
Q 2206 2953 1844 2953 
Q 1484 2953 1207 2617 
Q 931 2281 931 1641 
z
" transform="scale(0.015625)"/>
      <path id="ArialMT-62" d="M 941 0 
L 419 0 
L 419 4581 
L 981 4581 
L 981 2947 
Q 1338 3394 1891 3394 
Q 2197 3394 2470 3270 
Q 2744 3147 2920 2923 
Q 3097 2700 3197 2384 
Q 3297 2069 3297 1709 
Q 3297 856 2875 390 
Q 2453 -75 1863 -75 
Q 1275 -75 941 416 
L 941 0 
z
M 934 1684 
Q 934 1088 1097 822 
Q 1363 388 1816 388 
Q 2184 388 2453 708 
Q 2722 1028 2722 1663 
Q 2722 2313 2464 2622 
Q 2206 2931 1841 2931 
Q 1472 2931 1203 2611 
Q 934 2291 934 1684 
z
" transform="scale(0.015625)"/>
     </defs>
     <use xlink:href="#ArialMT-4e"/>
     <use xlink:href="#ArialMT-65" x="72.216797"/>
     <use xlink:href="#ArialMT-67" x="127.832031"/>
     <use xlink:href="#ArialMT-61" x="183.447266"/>
     <use xlink:href="#ArialMT-74" x="239.0625"/>
     <use xlink:href="#ArialMT-69" x="266.845703"/>
     <use xlink:href="#ArialMT-76" x="289.0625"/>
     <use xlink:href="#ArialMT-65" x="339.0625"/>
     <use xlink:href="#ArialMT-20" x="394.677734"/>
     <use xlink:href="#ArialMT-4c" x="422.460938"/>
     <use xlink:href="#ArialMT-6f" x="478.076172"/>
     <use xlink:href="#ArialMT-67" x="533.691406"/>
     <use xlink:href="#ArialMT-2d" x="589.306641"/>
     <use xlink:href="#ArialMT-4c" x="622.607422"/>
     <use xlink:href="#ArialMT-69" x="678.222656"/>
     <use xlink:href="#ArialMT-6b" x="700.439453"/>
     <use xlink:href="#ArialMT-65" x="750.439453"/>
     <use xlink:href="#ArialMT-6c" x="806.054688"/>
     <use xlink:href="#ArialMT-69" x="828.271484"/>
     <use xlink:href="#ArialMT-68" x="850.488281"/>
     <use xlink:href="#ArialMT-6f" x="906.103516"/>
     <use xlink:href="#ArialMT-6f" x="961.71875"/>
     <use xlink:href="#ArialMT-64" x="1017.333984"/>
     <use xlink:href="#ArialMT-20" x="1072.949219"/>
     <use xlink:href="#ArialMT-6c" x="1100.732422"/>
     <use xlink:href="#ArialMT-6f" x="1122.949219"/>
     <use xlink:href="#ArialMT-73" x="1178.564453"/>
     <use xlink:href="#ArialMT-73" x="1228.564453"/>
     <use xlink:href="#ArialMT-20" x="1278.564453"/>
     <use xlink:href="#ArialMT-70" x="1306.347656"/>
     <use xlink:href="#ArialMT-65" x="1361.962891"/>
     <use xlink:href="#ArialMT-72" x="1417.578125"/>
     <use xlink:href="#ArialMT-20" x="1450.878906"/>
     <use xlink:href="#ArialMT-62" x="1478.662109"/>
     <use xlink:href="#ArialMT-61" x="1534.277344"/>
     <use xlink:href="#ArialMT-74" x="1589.892578"/>
     <use xlink:href="#ArialMT-63" x="1617.675781"/>
     <use xlink:href="#ArialMT-68" x="1667.675781"/>
     <use xlink:href="#ArialMT-20" x="1723.291016"/>
     <use xlink:href="#ArialMT-69" x="1751.074219"/>
     <use xlink:href="#ArialMT-74" x="1773.291016"/>
     <use xlink:href="#ArialMT-65" x="1801.074219"/>
     <use xlink:href="#ArialMT-72" x="1856.689453"/>
     <use xlink:href="#ArialMT-61" x="1889.990234"/>
     <use xlink:href="#ArialMT-74" x="1945.605469"/>
     <use xlink:href="#ArialMT-69" x="1973.388672"/>
     <use xlink:href="#ArialMT-6f" x="1995.605469"/>
     <use xlink:href="#ArialMT-6e" x="2051.220703"/>
    </g>
   </g>
  </g>
 </g>
 <defs>
  <clipPath id="p1124e95527">
   <rect x="57.6" y="41.472" width="357.12" height="266.112"/>
  </clipPath>
 </defs>
</svg>
